<svg xmlns="http://www.w3.org/2000/svg" xmlns:xlink="http://www.w3.org/1999/xlink" version="1.1" width="1000" height="1000" viewBox="0 0 1000 1000" xml:space="preserve">
<desc>Created with Fabric.js 3.5.0</desc>
<defs>
</defs>
<rect x="0" y="0" width="100%" height="100%" fill="rgba(255,255,255,0)"/>
<g transform="matrix(31.2504 0 0 31.2504 500.0064 500.0064)" id="661304">
<g style="" vector-effect="non-scaling-stroke">
		<g transform="matrix(1 0 0 1 0.1 -0.45)" id="670292">
<path style="stroke: rgb(255,86,240); stroke-width: 2; stroke-dasharray: none; stroke-linecap: round; stroke-dashoffset: 0; stroke-linejoin: round; stroke-miterlimit: 10; is-custom-font: none; font-file-url: none; fill: none; fill-rule: nonzero; opacity: 1;" transform=" translate(-16.1, -15.55)" d="M 9.3 27.4 L 9.3 27.4 c 0.7 0.7 1.9 0.7 2.7 0 l 0 0 c 0.7 -0.7 1.9 -0.7 2.7 0 l 0 0 c 0.7 0.7 1.9 0.7 2.7 0 l 0 0 c 0.7 -0.7 1.9 -0.7 2.7 0 l 0 0 c 0.7 0.7 1.9 0.7 2.7 0 l 0 0 c 0.7 -0.7 1.9 -0.7 2.7 0 l 0.7 0.6 V 13 c 0 -5.5 -4.5 -10 -10 -10 h 0 C 10.5 3 6 7.5 6 13 v 15.1 l 0.7 -0.6 C 7.4 26.7 8.6 26.7 9.3 27.4 z" stroke-linecap="round"/>
</g>
		<g transform="matrix(1 0 0 1 -3 -1.5)" id="166315">
<line style="stroke: rgb(255,86,240); stroke-width: 2; stroke-dasharray: none; stroke-linecap: round; stroke-dashoffset: 0; stroke-linejoin: round; stroke-miterlimit: 10; is-custom-font: none; font-file-url: none; fill: none; fill-rule: nonzero; opacity: 1;" x1="0" y1="-1.5" x2="0" y2="1.5"/>
</g>
		<g transform="matrix(1 0 0 1 3 -1.5)" id="242759">
<line style="stroke: rgb(255,86,240); stroke-width: 2; stroke-dasharray: none; stroke-linecap: round; stroke-dashoffset: 0; stroke-linejoin: round; stroke-miterlimit: 10; is-custom-font: none; font-file-url: none; fill: none; fill-rule: nonzero; opacity: 1;" x1="0" y1="-1.5" x2="0" y2="1.5"/>
</g>
		<g transform="matrix(1 0 0 1 0 3)" id="551748">
<line style="stroke: rgb(255,86,240); stroke-width: 2; stroke-dasharray: none; stroke-linecap: round; stroke-dashoffset: 0; stroke-linejoin: round; stroke-miterlimit: 10; is-custom-font: none; font-file-url: none; fill: none; fill-rule: nonzero; opacity: 1;" x1="-5" y1="0" x2="5" y2="0"/>
</g>
</g>
</g>
</svg>