<svg xmlns="http://www.w3.org/2000/svg" xmlns:xlink="http://www.w3.org/1999/xlink" version="1.1" width="1000" height="1000" viewBox="0 0 1000 1000" xml:space="preserve">
<desc>Created with Fabric.js 3.5.0</desc>
<defs>
</defs>
<rect x="0" y="0" width="100%" height="100%" fill="rgba(255,255,255,0)"/>
<g transform="matrix(36.351 0 0 36.351 500.0005 500.0006)" id="206198">
<path style="stroke: none; stroke-width: 1; stroke-dasharray: none; stroke-linecap: butt; stroke-dashoffset: 0; stroke-linejoin: miter; stroke-miterlimit: 4; is-custom-font: none; font-file-url: none; fill: rgb(255,102,196); fill-rule: nonzero; opacity: 1;" vector-effect="non-scaling-stroke" transform=" translate(-16, -15.552)" d="M 16 2 C 9.9 2 5 6.9 5 13 v 15.1 c 0 0.4 0.2 0.8 0.6 0.9 c 0.4 0.2 0.8 0.1 1.1 -0.2 l 0.7 -0.6 c 0.4 -0.3 0.9 -0.3 1.3 0 c 1.1 1.1 2.9 1.1 4 0 c 0.4 -0.3 0.9 -0.3 1.3 0 c 1.1 1.1 2.9 1.1 4 0 c 0.4 -0.3 0.9 -0.3 1.3 0 c 1.1 1.1 2.9 1.1 4 0 c 0.4 -0.3 0.9 -0.3 1.3 0 l 0.7 0.6 c 0.2 0.2 0.4 0.3 0.7 0.3 c 0.1 0 0.3 0 0.4 -0.1 c 0.4 -0.2 0.6 -0.5 0.6 -0.9 V 13 C 27 6.9 22.1 2 16 2 z M 18 13 c 0 -0.6 0.4 -1 1 -1 s 1 0.4 1 1 v 3 c 0 0.6 -0.4 1 -1 1 s -1 -0.4 -1 -1 V 13 z M 12 13 c 0 -0.6 0.4 -1 1 -1 s 1 0.4 1 1 v 3 c 0 0.6 -0.4 1 -1 1 s -1 -0.4 -1 -1 V 13 z M 21 20 H 11 c -0.6 0 -1 -0.4 -1 -1 s 0.4 -1 1 -1 h 10 c 0.6 0 1 0.4 1 1 S 21.6 20 21 20 z" stroke-linecap="round"/>
</g>
</svg>